<svg width="40" height="40" viewBox="0 0 40 40" fill="none" xmlns="http://www.w3.org/2000/svg">
<path d="M15.2312 1.15708L2.50397 8.77221L12.1814 14.1935H26.6095L36.0524 8.77221C33.8236 7.4117 27.6418 3.64254 23.5597 1.15708C19.6183 -0.938505 16.3651 0.283921 15.2312 1.15708Z" fill="#7E80BB"/>
<path d="M37.8251 25.5848V11.0681L28.3948 16.5863L21.1148 29.1957L21.0853 39.6555C23.3546 38.3686 29.4718 35.2235 33.6228 32.8633C37.3748 30.4369 37.9877 27 37.8251 25.5848Z" fill="#7E80BB"/>
<path d="M1.31368 25.7032L1.31369 11.1273L10.6683 16.6317L18.0239 29.3142V39.6554C15.7546 38.3686 9.66703 35.3419 5.51597 32.9818C1.76402 30.5552 1.15113 27.1183 1.31368 25.7032Z" fill="#7E80BB"/>
<path d="M21 24C20.5202 24.935 18.4799 24.935 18 24L15 18.9763C14.5594 18.1176 16.0348 16.5 17 16.5H22C22.9652 16.5 24.4407 18.1176 24 18.9763L21 24Z" fill="#FFB538"/>
</svg>
