<svg width="40" height="40" viewBox="0 0 40 40" fill="none" xmlns="http://www.w3.org/2000/svg">
<g clip-path="url(#clip0_135_2)">
<path fill-rule="evenodd" clip-rule="evenodd" d="M19.9977 39.9924C30.8819 40.1538 39.8345 31.2036 39.9997 20C39.8345 8.7964 30.8819 -0.15152 19.9977 0.00896128C9.11279 -0.15152 0.170842 8.7964 0.00488281 20C0.170842 31.2036 9.11279 40.1538 19.9977 39.9924Z" fill="url(#paint0_radial_135_2)"/>
<path fill-rule="evenodd" clip-rule="evenodd" d="M28.6044 34.9004C21.8139 38.8201 14.4517 39.5174 9.75033 37.1737C16.0023 40.8941 23.6985 40.9417 29.9995 37.3152C36.2308 33.7898 40.0668 27.0214 39.9991 19.7082C39.685 24.9526 35.3861 30.9711 28.6044 34.9004ZM31.0401 4.04808C30.6349 3.36273 30.0779 2.77694 29.4091 2.35253C31.8912 3.66546 34.0727 5.50408 35.8084 7.74722C36.1126 8.13206 36.396 8.52499 36.6624 8.93925C37.3789 10.2008 37.7123 11.6465 37.6425 13.1104C37.4672 18.4347 32.7452 24.8896 25.3052 29.1832C17.8661 33.4761 9.91625 34.3447 5.21628 31.8296C3.92151 31.1632 2.84104 30.1428 2.08537 28.8702L2.05477 28.8195C1.85821 28.4251 1.68299 28.0315 1.51707 27.6276C0.416698 24.9907 -0.0940333 22.1434 0.0142185 19.2836C0.0548624 20.093 0.27781 20.8796 0.673053 21.5767C3.07749 25.7385 11.8215 25.1923 20.2029 20.3547C28.5951 15.5054 33.4445 8.21199 31.0401 4.04808ZM22.5404 1.47283C22.4621 1.36141 22.3809 1.24995 22.2941 1.16057C21.1552 0.211286 19.673 -0.181672 18.23 0.0785217C17.9565 0.0998278 17.6596 0.129879 17.3668 0.179642C14.7757 0.513981 12.2837 1.37171 10.0046 2.68609C7.73829 3.9792 5.7462 5.72685 4.14521 7.80888C3.97 8.03902 3.80397 8.27217 3.63444 8.50453C2.68297 9.61589 2.28059 11.1114 2.53695 12.5643C2.57468 12.686 2.62529 12.8187 2.68297 12.9293C4.05683 15.3133 9.62289 14.6888 15.0991 11.5152C20.5847 8.3542 23.9144 3.85755 22.5404 1.47283Z" fill="url(#paint1_radial_135_2)"/>
</g>
<defs>
<radialGradient id="paint0_radial_135_2" cx="0" cy="0" r="1" gradientUnits="userSpaceOnUse" gradientTransform="translate(20.0023 20.0007) scale(19.9972 19.9941)">
<stop stop-color="#FEC700"/>
<stop offset="1" stop-color="#FFDB51"/>
</radialGradient>
<radialGradient id="paint1_radial_135_2" cx="0" cy="0" r="1" gradientUnits="userSpaceOnUse" gradientTransform="translate(20 20) scale(19.9995 20.0005)">
<stop stop-color="#050007"/>
<stop offset="0.48" stop-color="#050007"/>
<stop offset="1" stop-color="#50504F"/>
</radialGradient>
<clipPath id="clip0_135_2">
<rect width="40" height="40" fill="white"/>
</clipPath>
</defs>
</svg>
