<svg width="40" height="40" viewBox="0 0 40 40" fill="none" xmlns="http://www.w3.org/2000/svg">
<path d="M20.8187 10.3258C20.8354 10.3091 20.8354 10.2924 20.8521 10.2757C21.1696 9.82456 21.0359 9.49039 20.8187 9.3066C20.685 9.18964 17.594 7.3183 17.594 7.3183C17.3768 7.16792 17.2264 6.91729 17.2264 6.61654C17.2264 6.16541 17.4937 5.81454 18.1287 5.63074C20.117 5.07936 27.1345 4.79532 29.5071 4.79532C30.3258 4.79532 31.7627 4.79532 33.0326 4.82874L32.9825 4.77861C29.4904 1.80451 24.9457 0 20 0C8.95572 0 0 8.95572 0 20C0 24.8622 1.73768 29.3066 4.61153 32.7652C7.11779 29.1562 13.3333 20.2506 14.6867 18.4294C16.2573 16.3241 19.8329 11.6625 20.4344 10.8772L20.4678 10.8438L20.8187 10.3258ZM7.80286 35.8563C11.178 38.4629 15.4052 40 20 40C31.0443 40 40 31.0443 40 20C40 16.6583 39.1813 13.5005 37.7277 10.7436C38.4127 10.0752 39.2147 9.02259 38.68 7.71934C38.513 7.33504 37.7444 6.43279 37.5439 6.21558L37.5773 6.29912C38.0618 7.76946 37.1095 8.68843 36.4077 9.30664C36.0234 9.65751 30.944 14.4361 24.9958 19.6492C19.7494 24.244 13.868 28.9056 10.4762 31.462C5.6976 35.0376 4.76193 35.5556 4.76193 35.5556C4.62826 35.6224 4.42776 35.6893 4.27738 35.6893C3.99334 35.6893 3.726 35.5556 3.57563 35.3551C3.54221 35.4219 3.54221 35.4721 3.55892 35.5055C4.07688 36.3409 4.92901 37.2933 5.41355 37.2933C5.56393 37.2933 5.78114 37.2264 5.91481 37.1596C5.8981 37.1429 6.28239 36.9424 7.80286 35.8563Z" fill="#E2001A"/>
<path d="M20.852 10.2753C21.1528 9.82416 21.0358 9.48999 20.8186 9.3062C20.6849 9.18924 17.5939 7.31789 17.5939 7.31789C17.3767 7.16752 17.2263 6.91689 17.2263 6.61614C17.2263 6.1483 17.5103 5.81413 18.1285 5.63034C20.1168 5.07896 27.1344 4.79492 29.507 4.79492C30.6265 4.79492 32.8654 4.79492 34.319 4.87846C35.9564 4.97871 37.2096 5.32959 37.527 6.11488C38.1285 7.66877 37.126 8.63786 36.4076 9.28949C36.0233 9.64037 30.9606 14.4189 24.9957 19.632C19.7493 24.2268 13.8679 28.8885 10.4761 31.4448C5.69747 35.0205 4.7618 35.5384 4.7618 35.5384C4.62813 35.6052 4.42763 35.6721 4.26054 35.6721C3.75929 35.6721 3.375 35.2878 3.375 34.8032C3.375 34.6194 3.42512 34.4357 3.52537 34.302C3.52537 34.302 12.9489 20.7347 14.6532 18.429C16.3742 16.1399 20.4844 10.7598 20.4844 10.7598C20.4844 10.7598 20.5513 10.7097 20.852 10.2753Z" fill="#FEFEFE"/>
</svg>
